
<svg xmlns="http://www.w3.org/2000/svg" width="240" height="78.806" viewBox="0 0 240 78.806"><g transform="translate(-11183.967 130.294)"><path d="M144.494,268.065a11.079,11.079,0,1,0,7.833,3.245,11.043,11.043,0,0,0-7.833-3.245Zm-3.4,7.681a4.806,4.806,0,1,1-1.407,3.4A4.794,4.794,0,0,1,141.1,275.746Z" transform="translate(11078.531 -370.031)" fill="#fff" fill-rule="evenodd"/><path d="M124.725,286.7a20.483,20.483,0,1,0,23.8-30.782l-2.082,5.9A14.226,14.226,0,1,1,129.912,283.2Z" transform="translate(11081.333 -366.112)" fill="#fff" fill-rule="evenodd"/><path d="M120.6,246.2a29.892,29.892,0,0,0,10.317,55.429l.954-6.181a23.635,23.635,0,0,1-8.141-43.832Z" transform="translate(11087.487 -362.891)" fill="#fff" fill-rule="evenodd"/><path d="M175.131,287.993a29.9,29.9,0,0,0-20.686-47.421l-.714,6.233a23.618,23.618,0,0,1,16.348,37.477Z" transform="translate(11072.088 -361.256)" fill="#fff" fill-rule="evenodd"/><path d="M165.81,247.1a39.313,39.313,0,0,0-73.687,14.141l6.233.713a33.031,33.031,0,0,1,61.934-11.884Z" transform="translate(11091.844 -356.684)" fill="#fff" fill-rule="evenodd"/><path d="M191.709,305.278a39.4,39.4,0,0,0,8.16-35.081l-6.071,1.525a32.69,32.69,0,0,1,.936,5.875,33.38,33.38,0,0,1-.157,5.991,32.731,32.731,0,0,1-7.634,17.642Z" transform="translate(11061.429 -370.686)" fill="#fff" fill-rule="evenodd"/><path d="M110.545,324.96a39.294,39.294,0,0,0,37.945,8.664l0,.011a39.588,39.588,0,0,0,7.313-3.062l-2.973-5.5a32.521,32.521,0,0,1-6.144,2.554v.012a32.679,32.679,0,0,1-6.58,1.274,33.083,33.083,0,0,1-25.333-8.58Z" transform="translate(11085.904 -386.795)" fill="#fff" fill-rule="evenodd"/><path d="M131.922,259.563a3.861,3.861,0,1,0,3.861,3.86A3.86,3.86,0,0,0,131.922,259.563Z" transform="translate(11080.258 -367.323)" fill="#fff" fill-rule="evenodd"/><g transform="translate(11279.511 -114.678)"><path d="M249.774,265.751a6.418,6.418,0,0,0-2.827-5.253,5.864,5.864,0,0,0,2.412-4.823c0-3.956-2.987-6.229-6.77-6.229H233.83a1.507,1.507,0,0,0-1.5,1.5V270.8a1.5,1.5,0,0,0,1.5,1.5h8.981c4.019,0,6.964-2.391,6.964-6.541Zm-7.193,2.848h-6.4v-5.745h6.4a2.645,2.645,0,0,1,2.827,2.889,2.606,2.606,0,0,1-2.827,2.855Zm0-10.152h-6.4v-5.183h6.4a2.522,2.522,0,0,1,2.827,2.605c0,1.732-1.178,2.578-2.827,2.578Zm11.878-4.816a2.11,2.11,0,0,0,1.552-.644,2.22,2.22,0,0,0,0-3.042,2.108,2.108,0,0,0-1.552-.644,2.153,2.153,0,0,0-2.176,2.176,2.124,2.124,0,0,0,.63,1.525,2.159,2.159,0,0,0,1.546.63Zm.3,1.518h-.638a1.629,1.629,0,0,0-1.753,1.662v13.623a1.633,1.633,0,0,0,1.753,1.664h.638a1.633,1.633,0,0,0,1.753-1.664V256.811a1.629,1.629,0,0,0-1.753-1.662Zm21.731,4.441a9.665,9.665,0,0,0-1.885-2.945,8.882,8.882,0,0,0-12.889,0,9.554,9.554,0,0,0,0,13.083,8.726,8.726,0,0,0,6.43,2.744,8.781,8.781,0,0,0,6.458-2.737,9.674,9.674,0,0,0,1.885-10.145Zm-3.777,5.634a5.03,5.03,0,0,1-1.039,1.656,4.97,4.97,0,0,1-1.559,1.109,4.794,4.794,0,0,1-3.873,0,5.088,5.088,0,0,1-1.567-1.109,5.165,5.165,0,0,1-1.032-1.649,5.63,5.63,0,0,1,0-4.074,5.192,5.192,0,0,1,1.032-1.655,5.076,5.076,0,0,1,1.567-1.109,4.867,4.867,0,0,1,3.873,0,4.959,4.959,0,0,1,1.559,1.109,5.1,5.1,0,0,1,1.039,1.655,5.621,5.621,0,0,1,0,4.068Zm32.658-6.666a7.805,7.805,0,0,0-1.642-2.439,7.666,7.666,0,0,0-2.446-1.642,7.445,7.445,0,0,0-2.98-.6h-.249a7.439,7.439,0,0,0-2.979.6,7.676,7.676,0,0,0-2.447,1.642,2.389,2.389,0,0,0-.215.228c-.069-.083-.145-.152-.222-.228a7.568,7.568,0,0,0-2.439-1.642,7.469,7.469,0,0,0-2.98-.6h-.249a7.421,7.421,0,0,0-2.979.6,7.666,7.666,0,0,0-2.446,1.642,7.658,7.658,0,0,0-2.246,5.453v8.862a1.578,1.578,0,0,0,1.628,1.664h.8a1.624,1.624,0,0,0,1.4-.652,1.923,1.923,0,0,0,.318-1.136v-8.8a3.262,3.262,0,0,1,.284-1.358,3.363,3.363,0,0,1,.776-1.088,4,4,0,0,1,1.206-.769,3.586,3.586,0,0,1,2.765,0,3.979,3.979,0,0,1,1.2.769,3.288,3.288,0,0,1,1.067,2.446v8.8a1.934,1.934,0,0,0,.319,1.136,1.613,1.613,0,0,0,1.309.652h.963a1.655,1.655,0,0,0,1.331-.652,1.953,1.953,0,0,0,.318-1.136v-8.8a3.256,3.256,0,0,1,.277-1.358,3.5,3.5,0,0,1,.783-1.088,4.013,4.013,0,0,1,1.206-.769,3.586,3.586,0,0,1,2.765,0,3.979,3.979,0,0,1,1.2.769,3.289,3.289,0,0,1,1.067,2.446v8.8a1.938,1.938,0,0,0,.318,1.136,1.624,1.624,0,0,0,1.4.652h.8a1.577,1.577,0,0,0,1.628-1.664v-8.862a7.881,7.881,0,0,0-.6-3.015Zm19.354,4.345a9.112,9.112,0,0,0-5.128-8.266,7.988,7.988,0,0,0-6.708.014c-4.448,2.065-6.326,7.616-4.573,12.092a8.333,8.333,0,0,0,4.85,4.92v.035l.256.1a9.169,9.169,0,0,0,3.174.63,8.74,8.74,0,0,0,3.416-.658,9.017,9.017,0,0,0,3.049-2,1.46,1.46,0,0,0,.153-2.029l-.493-.735a1.5,1.5,0,0,0-.138-.167,1.756,1.756,0,0,0-.61-.381,1.411,1.411,0,0,0-1.552.339,6.131,6.131,0,0,1-1.844,1.15,5.915,5.915,0,0,1-1.039.312,6.5,6.5,0,0,1-.839.083,5.439,5.439,0,0,1-2.044-.382l-.083-.034a4.765,4.765,0,0,1-2.564-2.918h10.332c1.337,0,2.384-.652,2.384-2.107Zm-12.508-1.975a5.161,5.161,0,0,1,1.191-1.767c2.35-2.252,5.772-1,6.888,1.767Zm22.756-2.688a1.686,1.686,0,0,0,1.787-1.753v-.513a1.686,1.686,0,0,0-1.787-1.753h-1.608v-3.187a1.644,1.644,0,0,0-1.725-1.726h-.665a1.652,1.652,0,0,0-1.726,1.726c0,1.06-.028,2.12-.035,3.187h-1.039a1.854,1.854,0,0,0-1.172.354c-.644.5-.589,1.226-.589,1.94a1.6,1.6,0,0,0,1.76,1.725h1.039v8.606c0,3.354,1.434,5.405,4.961,5.405a3.848,3.848,0,0,0,1.407-.146c1.081-.381.991-1.386.991-2.307,0-1.539-1.191-1.629-2.376-1.629a1.012,1.012,0,0,1-.623-.249,4.363,4.363,0,0,1-.215-1.525v-8.156Zm15.154-3.881a10.132,10.132,0,0,0-7.774.943.626.626,0,0,0-.056-.2,1.488,1.488,0,0,0-1.414-.846h-.8a1.686,1.686,0,0,0-1.656,1.878v14.274a1.632,1.632,0,0,0,1.726,1.691h.665a1.648,1.648,0,0,0,1.726-1.726V262.23c0-3.374,3.54-4.947,6.465-4.053a1.408,1.408,0,0,0,1.538-.353,1.831,1.831,0,0,0,.388-.61,1.127,1.127,0,0,0,.056-.208l.138-.894a1.458,1.458,0,0,0,.007-.672,1.488,1.488,0,0,0-1.012-1.081Zm5.738-.728a2.109,2.109,0,0,0,1.552-.644,2.149,2.149,0,0,0,.6-1.511,2.17,2.17,0,0,0-.6-1.531,2.107,2.107,0,0,0-1.552-.644,2.153,2.153,0,0,0-2.176,2.176,2.127,2.127,0,0,0,.63,1.525,2.159,2.159,0,0,0,1.546.63Zm.3,1.518h-.637a1.629,1.629,0,0,0-1.754,1.662v13.623a1.633,1.633,0,0,0,1.754,1.664h.637a1.633,1.633,0,0,0,1.753-1.664V256.811a1.629,1.629,0,0,0-1.753-1.662Zm20.213,12.583-.5-.741a1.062,1.062,0,0,0-.138-.166,1.745,1.745,0,0,0-.611-.381,1.416,1.416,0,0,0-1.552.339,6.031,6.031,0,0,1-1.842,1.151,5.058,5.058,0,0,1-1.864.394,5.652,5.652,0,0,1-2.059-.381,5.064,5.064,0,0,1-1.676-1.039,4.926,4.926,0,0,1-1.136-1.628,5.229,5.229,0,0,1-.43-2.155,4.981,4.981,0,0,1,.423-2.072A4.99,4.99,0,0,1,367.8,258.4a5.679,5.679,0,0,1,2.065-.381,4.4,4.4,0,0,1,2.016.443,8.835,8.835,0,0,1,1.718,1.123,1.321,1.321,0,0,0,.153.111,1.906,1.906,0,0,0,.8.27,1.362,1.362,0,0,0,1.254-.555l.568-.623a.408.408,0,0,1,.048-.056,1.529,1.529,0,0,0-.263-2.217,11.732,11.732,0,0,0-1.2-.887,12.225,12.225,0,0,0-1.469-.818,10.561,10.561,0,0,0-1.691-.623,7.349,7.349,0,0,0-1.905-.249,9.375,9.375,0,0,0-3.645.707,9.256,9.256,0,0,0-2.966,1.94,8.96,8.96,0,0,0-2.01,2.924,9.141,9.141,0,0,0-.728,3.617,8.954,8.954,0,0,0,.769,3.7,9.561,9.561,0,0,0,2.052,2.917,9.743,9.743,0,0,0,2.938,1.926,9.333,9.333,0,0,0,3.444.741,9.257,9.257,0,0,0,6.465-2.661,1.475,1.475,0,0,0,.457-1.407,1.429,1.429,0,0,0-.3-.61Z" transform="translate(-232.326 -249.3)" fill="#fff" fill-rule="evenodd"/><path d="M236.221,288.806a1.028,1.028,0,0,0-.976-.665h-1.559a1.054,1.054,0,0,0-.977,1.441l7.975,19.839a1.028,1.028,0,0,0,.977.658h2.356a1.036,1.036,0,0,0,.977-.658l8-19.839a1.046,1.046,0,0,0-.976-1.441h-1.552a1.045,1.045,0,0,0-.985.665l-6.631,16.977-6.632-16.977Zm21.641,4.109h-.638a1.271,1.271,0,0,0-1.351,1.345v14.281a1.264,1.264,0,0,0,1.351,1.344h.638a1.264,1.264,0,0,0,1.351-1.344V294.26a1.268,1.268,0,0,0-1.351-1.345Zm-.291-1.49a1.714,1.714,0,0,0,1.254-.519,1.818,1.818,0,0,0,0-2.487,1.674,1.674,0,0,0-1.254-.526,1.751,1.751,0,0,0-1.781,1.781,1.731,1.731,0,0,0,.513,1.24,1.765,1.765,0,0,0,1.268.512Zm10.616,7.928c-.846-.215-2.425-.735-2.425-1.816,0-1.3,1.178-1.857,2.335-1.857.069,0,.138,0,.207.007l-.007.014a3.33,3.33,0,0,1,1.587.548,1.33,1.33,0,0,0,2.107-.2l.374-.513a1.213,1.213,0,0,0-.291-1.781,7.011,7.011,0,0,0-1.192-.728l.027-.027a6.213,6.213,0,0,0-.762-.264l-.014-.007a5.367,5.367,0,0,0-1.462-.243q-.291-.02-.582-.02c-3.076,0-5.606,1.815-5.606,5.072,0,2.869,2.62,4.5,5.114,5.114a5.142,5.142,0,0,1,3.112,1.615,1.383,1.383,0,0,1-.007,1.531,3.47,3.47,0,0,1-5.447-.312l-.028.09a1.355,1.355,0,0,0-2.086-.451l-.541.381a1.254,1.254,0,0,0-.3,1.836,6.177,6.177,0,0,0,2.467,2.183,7.342,7.342,0,0,0,3.229.707c3.146,0,6.251-1.8,6.251-5.259.007-3.389-3.216-4.9-6.056-5.62Zm10.837-6.438h-.637a1.272,1.272,0,0,0-1.352,1.345v14.281a1.265,1.265,0,0,0,1.352,1.344h.637a1.264,1.264,0,0,0,1.352-1.344V294.26a1.268,1.268,0,0,0-1.352-1.345Zm-.291-1.49a1.713,1.713,0,0,0,1.254-.519,1.816,1.816,0,0,0,0-2.487,1.672,1.672,0,0,0-1.254-.526,1.75,1.75,0,0,0-1.78,1.781,1.733,1.733,0,0,0,.512,1.24,1.767,1.767,0,0,0,1.268.512Zm21.031,6.514a9.1,9.1,0,0,0-1.8-2.827,8.325,8.325,0,0,0-2.737-1.92,8.469,8.469,0,0,0-3.437-.7,8.29,8.29,0,0,0-3.416.707,8.413,8.413,0,0,0-2.724,1.913,9.1,9.1,0,0,0-1.8,2.827,9.331,9.331,0,0,0,0,6.887,9.152,9.152,0,0,0,1.8,2.821,8.346,8.346,0,0,0,6.14,2.62,8.491,8.491,0,0,0,3.437-.7,8.225,8.225,0,0,0,2.737-1.919,9.154,9.154,0,0,0,1.8-2.821,9.341,9.341,0,0,0,0-6.887Zm-3.028,5.626a5.437,5.437,0,0,1-1.123,1.781,5.28,5.28,0,0,1-1.684,1.2,5.211,5.211,0,0,1-4.206,0,5.3,5.3,0,0,1-1.691-1.2,5.5,5.5,0,0,1-1.122-1.781,6.051,6.051,0,0,1,0-4.372,5.454,5.454,0,0,1,1.122-1.774,5.346,5.346,0,0,1,1.691-1.206,5.285,5.285,0,0,1,4.206,0,5.4,5.4,0,0,1,1.684,1.206,5.468,5.468,0,0,1,1.123,1.774,5.919,5.919,0,0,1,.409,2.189,6.019,6.019,0,0,1-.409,2.183Zm22.54-2.245a9.5,9.5,0,0,0-.609-3.035,8.911,8.911,0,0,0-1.76-2.848,8.352,8.352,0,0,0-2.668-1.92,8.275,8.275,0,0,0-6.659,0,8.351,8.351,0,0,0-2.668,1.92,8.911,8.911,0,0,0-1.76,2.848,9.708,9.708,0,0,0-.61,3.035h-.02l.02,7.505a1.248,1.248,0,0,0,1.323,1.323h.665a1.246,1.246,0,0,0,1.323-1.317l-.007-7.512h-.02a6.318,6.318,0,0,1,.367-1.788,5.612,5.612,0,0,1,1.067-1.794,5.1,5.1,0,0,1,1.615-1.205,4.95,4.95,0,0,1,4.068,0,4.861,4.861,0,0,1,1.615,1.205,5.5,5.5,0,0,1,1.067,1.794,6.136,6.136,0,0,1,.367,1.788h-.014l-.015,7.512a1.243,1.243,0,0,0,1.324,1.317h.665a1.244,1.244,0,0,0,1.323-1.323l.028-7.505Z" transform="translate(-232.424 -261.742)" fill="#fff" fill-rule="evenodd"/></g></g></svg>